<svg xmlns="http://www.w3.org/2000/svg" viewBox="0 0 64 64">
  <path d="M48.6022,1.3857a9.67,9.67,0,0,0-7.26,16.037,9.5551,9.5551,0,0,0,5.223,3.076v5.893l-14.561,7.574-14.55-7.574v-5.893a9.6578,9.6578,0,1,0-9.311-3.076,9.5551,9.5551,0,0,0,5.223,3.076v7.848a.9571.9571,0,0,0,.533.861l16.064,8.312v6a9.655,9.655,0,1,0,9.3,3.076A9.5551,9.5551,0,0,0,34.04,43.52v-6l16.064-8.312a.9569.9569,0,0,0,.533-.861v-7.848a9.667,9.667,0,0,0-2.035-19.113Zm-38.774,9.666a5.578,5.578,0,1,1,5.578,5.578h0A5.584,5.584,0,0,1,9.8282,11.0517ZM37.5822,52.97a5.578,5.578,0,1,1-5.578-5.578h0A5.584,5.584,0,0,1,37.5822,52.97Zm11.02-36.326a5.578,5.578,0,1,1,5.578-5.578h0A5.584,5.584,0,0,1,48.6022,16.6437Z" fill="#88c13d"/>
</svg>
