<svg xmlns="http://www.w3.org/2000/svg" viewBox="0 0 64 64">
  <path d="M20.6565,26.3285a3.1511,3.1511,0,0,0-5.042,3.781h0l3.752,5a1.574,1.574,0,0,1-.148,2.058l-1.26,1.26a1.5661,1.5661,0,0,1-2.2146.012,1.5926,1.5926,0,0,1-.1094-.12l-8.844-10.613V13.0945a3.151,3.151,0,0,0-6.3,0V34.6a4.7316,4.7316,0,0,0,1.034,2.954l10.25,13.224a5.8767,5.8767,0,0,1,1.024,2.137,1.543,1.543,0,0,0,1.507,1.142h12.968a1.58,1.58,0,0,0,1.575-1.575V41.4525a12.6231,12.6231,0,0,0-2.521-7.562l-5.672-7.562Zm39.702-16.385a3.148,3.148,0,0,0-3.151,3.145v14.618l-8.842,10.615a1.581,1.581,0,0,1-2.2273.1961q-.05-.042-.0967-.0881l-1.26-1.26a1.574,1.574,0,0,1-.148-2.058l3.752-5a3.1511,3.1511,0,0,0-5.042-3.781h0l-5.672,7.562a12.6231,12.6231,0,0,0-2.521,7.562v11.027a1.58,1.58,0,0,0,1.575,1.575h12.965a1.5511,1.5511,0,0,0,1.507-1.142,5.8767,5.8767,0,0,1,1.024-2.137l10.254-13.224A4.7316,4.7316,0,0,0,63.51,34.6V13.0945a3.1479,3.1479,0,0,0-3.145-3.151Z" fill="#076665"/>
</svg>
